<svg width="362" height="362" viewBox="0 0 362 362" fill="none" xmlns="http://www.w3.org/2000/svg">
<circle cx="181" cy="181" r="181" fill="#2D2E32"/>
<path fill-rule="evenodd" clip-rule="evenodd" d="M160.899 177.373H165.362C166.746 177.373 167.852 177.186 168.671 176.818C169.489 176.449 170.119 175.916 170.556 175.224C170.993 174.532 171.288 173.678 171.442 172.667C171.596 171.656 171.673 170.479 171.673 169.145C171.673 167.811 171.594 166.635 171.442 165.622C171.29 164.609 170.967 163.743 170.479 163.026C169.991 162.308 169.293 161.777 168.439 161.432C167.586 161.087 166.414 160.913 164.977 160.913H160.899V177.373ZM153.053 153.488H165.672C174.906 153.488 179.524 158.873 179.524 169.646C179.524 172.841 179.024 175.587 178.021 177.88C177.019 180.173 175.264 182.017 172.75 183.41L181.213 208.536H172.902L165.471 184.625H160.899V208.536H153.053V153.488ZM185.831 153.488H197.602C199.777 153.488 201.654 153.771 203.295 154.34C204.935 154.909 206.423 155.912 207.758 157.353C209.086 158.784 210.038 160.525 210.529 162.417C211.043 164.35 211.299 166.966 211.299 170.267C211.299 172.689 211.106 174.423 210.825 176.15C210.544 177.876 209.633 180.881 206.054 182.919C203.817 184.193 200.605 184.651 197.682 184.651H193.681V208.536H185.834L185.831 153.488ZM193.677 177.373H197.448C199.039 177.373 200.269 177.168 201.144 176.758C202.02 176.348 202.658 175.795 203.067 175.093C203.477 174.391 203.72 173.539 203.799 172.542C203.878 171.545 203.913 170.433 203.913 169.208C203.913 168.074 203.874 166.998 203.799 165.977C203.724 164.956 203.49 164.074 203.107 163.321C202.724 162.568 202.119 161.983 201.298 161.553C200.478 161.123 199.298 160.907 197.761 160.907H193.683L193.677 177.373ZM242.075 196.243C242.075 197.943 241.755 199.567 241.113 201.113C240.47 202.659 239.587 204.013 238.458 205.172C237.321 206.338 235.977 207.282 234.495 207.955C232.962 208.656 231.295 209.012 229.61 209C228.121 209 226.609 208.794 225.07 208.381C223.549 207.978 222.133 207.253 220.915 206.254C219.684 205.249 218.672 203.921 217.875 202.27C217.079 200.619 216.683 198.534 216.683 196.007V165.68C216.683 163.896 216.992 162.201 217.606 160.655C218.221 159.109 219.095 157.769 220.223 156.635C221.352 155.501 222.698 154.613 224.263 153.967C225.829 153.321 227.56 153 229.457 153C231.252 153 232.92 153.323 234.458 153.967C235.996 154.611 237.33 155.513 238.458 156.673C239.587 157.832 240.474 159.224 241.113 160.847C241.751 162.471 242.075 164.217 242.075 166.144V169.236H234.229V166.607C234.229 165.061 233.794 163.721 232.92 162.588C232.511 162.038 231.975 161.597 231.359 161.301C230.742 161.004 230.063 160.862 229.38 160.887C227.432 160.887 226.135 161.494 225.495 162.705C224.854 163.916 224.532 165.45 224.532 167.303V195.446C224.532 197.043 224.878 198.383 225.572 199.466C226.265 200.548 227.509 201.091 229.303 201.091C229.817 201.091 230.371 201 230.958 200.819C231.545 200.639 232.084 200.344 232.574 199.927C233.064 199.511 233.46 198.948 233.766 198.227C234.072 197.505 234.229 196.601 234.229 195.521V192.815H242.075V196.243ZM257.452 180.94C257.452 178.93 255.832 177.301 253.835 177.301H234.235V184.576H250.216V192.693H247.754L253.877 201.368L260 192.693H257.454L257.452 180.94ZM119.81 184.647V195.543C119.81 197.81 120.195 199.785 120.964 201.458C121.733 203.131 122.747 204.524 124.004 205.632C125.261 206.74 126.672 207.578 128.234 208.145C129.75 208.704 131.351 208.991 132.966 208.996C134.58 208.991 136.182 208.704 137.697 208.145C139.263 207.578 140.672 206.738 141.927 205.632C143.182 204.526 144.196 203.135 144.967 201.458C145.738 199.781 146.121 197.81 146.121 195.543V177.386L132.058 177.367L132.039 184.647H138.27V195.545C138.27 197.452 137.745 198.855 136.693 199.759C135.658 200.656 134.329 201.138 132.962 201.113C131.594 201.138 130.265 200.656 129.23 199.759C128.179 198.857 127.653 197.452 127.653 195.545V166.477C127.653 164.57 128.179 163.166 129.23 162.263C130.265 161.366 131.594 160.884 132.962 160.909C134.329 160.884 135.658 161.366 136.693 162.263C137.745 163.164 138.27 164.57 138.27 166.477V169.26H146.117V166.477C146.117 164.261 145.732 162.302 144.963 160.602C144.194 158.901 143.18 157.496 141.923 156.387C140.666 155.279 139.255 154.441 137.693 153.874C136.178 153.316 134.576 153.028 132.962 153.024C131.347 153.028 129.746 153.316 128.23 153.874C126.665 154.441 125.255 155.281 124 156.387C122.745 157.494 121.731 158.901 120.96 160.602C120.19 162.302 119.806 164.261 119.806 166.477V177.373H111.784V169.258H114.246L108.123 160.582L102 169.258H104.546V181.012C104.546 183.022 106.166 184.651 108.163 184.651H119.81V184.647Z" fill="#2DA6B0"/>
</svg>
