<svg id="node" className="tech" viewBox="0 0 362 362" fill="none" xmlns="http://www.w3.org/2000/svg">
<circle cx="181" cy="181" r="181" fill="#2D2E32"/>
<path d="M181 267C178.64 267 176.437 266.372 174.391 265.272L153.464 252.861C150.317 251.133 151.89 250.505 152.834 250.191C157.083 248.777 157.87 248.463 162.275 245.949C162.747 245.635 163.377 245.792 163.849 246.106L179.899 255.689C180.528 256.003 181.315 256.003 181.787 255.689L244.569 219.4C245.199 219.085 245.513 218.457 245.513 217.672V145.25C245.513 144.464 245.199 143.836 244.569 143.522L181.787 107.39C181.157 107.075 180.371 107.075 179.899 107.39L117.116 143.522C116.487 143.836 116.172 144.622 116.172 145.25V217.672C116.172 218.3 116.487 219.085 117.116 219.4L134.267 229.297C143.551 234.01 149.373 228.511 149.373 223.013V151.534C149.373 150.591 150.159 149.649 151.261 149.649H159.286C160.23 149.649 161.174 150.434 161.174 151.534V223.013C161.174 235.424 154.408 242.65 142.607 242.65C138.988 242.65 136.155 242.65 128.13 238.723L111.609 229.297C107.518 226.94 105 222.542 105 217.829V145.407C105 140.694 107.518 136.295 111.609 133.939L174.391 97.6495C178.325 95.4502 183.675 95.4502 187.609 97.6495L250.391 133.939C254.482 136.295 257 140.694 257 145.407V217.829C257 222.542 254.482 226.94 250.391 229.297L187.609 265.586C185.563 266.529 183.203 267 181 267ZM200.354 217.2C172.818 217.2 167.153 204.633 167.153 193.95C167.153 193.007 167.94 192.065 169.041 192.065H177.224C178.168 192.065 178.954 192.693 178.954 193.636C180.213 201.962 183.832 206.046 200.511 206.046C213.729 206.046 219.393 203.062 219.393 195.992C219.393 191.908 217.82 188.923 197.207 186.881C180.056 185.153 169.356 181.382 169.356 167.715C169.356 154.99 180.056 147.449 197.994 147.449C218.135 147.449 228.048 154.362 229.306 169.443C229.306 169.914 229.149 170.385 228.834 170.857C228.52 171.171 228.048 171.485 227.576 171.485H219.393C218.607 171.485 217.82 170.857 217.663 170.071C215.774 161.431 210.896 158.603 197.994 158.603C183.518 158.603 181.787 163.63 181.787 167.401C181.787 171.956 183.832 173.37 203.344 175.884C222.698 178.397 231.824 182.011 231.824 195.521C231.667 209.345 220.337 217.2 200.354 217.2Z" fill="#64F4AC"/>
</svg>
