<svg id="react" className="tech" viewBox="0 0 362 362" fill="none" xmlns="http://www.w3.org/2000/svg">
<circle cx="181" cy="181" r="181" fill="#2D2E32"/>
<path d="M235.648 153.967C233.888 153.361 232.064 152.788 230.186 152.246C230.494 150.986 230.778 149.743 231.03 148.52C235.164 128.45 232.461 112.282 223.23 106.958C214.378 101.854 199.902 107.176 185.282 119.899C183.876 121.123 182.466 122.418 181.057 123.776C180.118 122.878 179.18 122.01 178.245 121.179C162.923 107.575 147.565 101.841 138.342 107.18C129.499 112.299 126.88 127.499 130.602 146.52C130.962 148.357 131.382 150.233 131.857 152.141C129.683 152.758 127.585 153.416 125.577 154.116C107.613 160.379 96.1406 170.194 96.1406 180.376C96.1406 190.891 108.456 201.438 127.167 207.833C128.644 208.338 130.176 208.815 131.755 209.268C131.242 211.331 130.796 213.353 130.422 215.325C126.874 234.016 129.645 248.857 138.464 253.943C147.574 259.197 162.863 253.797 177.751 240.784C178.927 239.755 180.108 238.664 181.291 237.521C182.825 238.997 184.355 240.395 185.878 241.705C200.298 254.114 214.541 259.125 223.352 254.024C232.453 248.756 235.411 232.813 231.571 213.416C231.278 211.935 230.936 210.421 230.553 208.881C231.627 208.563 232.681 208.236 233.709 207.895C253.16 201.45 265.816 191.031 265.816 180.376C265.816 170.157 253.973 160.276 235.648 153.967Z" fill="#53C1DE"/>
<path d="M231.507 200.906C230.58 201.213 229.628 201.51 228.658 201.798C226.51 195 223.612 187.771 220.065 180.302C223.45 173.011 226.236 165.875 228.323 159.121C230.059 159.623 231.744 160.153 233.367 160.712C249.068 166.117 258.646 174.109 258.646 180.267C258.646 186.826 248.302 195.341 231.507 200.906ZM224.539 214.715C226.237 223.292 226.479 231.047 225.354 237.109C224.344 242.556 222.312 246.188 219.799 247.642C214.451 250.737 203.016 246.714 190.684 236.102C189.27 234.885 187.846 233.586 186.418 232.211C191.199 226.983 195.977 220.904 200.64 214.153C208.843 213.425 216.592 212.235 223.62 210.61C223.966 212.007 224.274 213.376 224.539 214.715ZM154.065 247.107C148.841 248.952 144.68 249.005 142.165 247.555C136.813 244.468 134.588 232.552 137.623 216.568C137.97 214.738 138.384 212.857 138.861 210.935C145.812 212.472 153.504 213.578 161.727 214.245C166.422 220.851 171.338 226.923 176.292 232.24C175.21 233.285 174.132 234.279 173.059 235.217C166.476 240.971 159.879 245.054 154.065 247.107ZM129.59 200.866C121.316 198.038 114.484 194.363 109.8 190.352C105.592 186.748 103.467 183.17 103.467 180.267C103.467 174.088 112.679 166.208 128.041 160.851C129.906 160.201 131.857 159.589 133.882 159.014C136.005 165.92 138.79 173.141 142.152 180.443C138.747 187.854 135.922 195.19 133.778 202.177C132.334 201.762 130.936 201.325 129.59 200.866ZM137.794 145.019C134.606 128.723 136.723 116.429 142.052 113.345C147.729 110.058 160.281 114.744 173.511 126.491C174.357 127.242 175.205 128.028 176.057 128.841C171.127 134.134 166.256 140.161 161.603 146.728C153.623 147.467 145.984 148.656 138.961 150.247C138.519 148.47 138.128 146.725 137.794 145.019ZM210.985 163.092C209.306 160.192 207.582 157.36 205.825 154.606C211.239 155.291 216.425 156.199 221.296 157.311C219.834 161.998 218.011 166.898 215.866 171.921C214.327 168.999 212.699 166.053 210.985 163.092ZM181.138 134.021C184.481 137.643 187.829 141.687 191.123 146.075C187.804 145.918 184.444 145.837 181.057 145.837C177.701 145.837 174.366 145.916 171.068 146.07C174.365 141.723 177.742 137.685 181.138 134.021ZM151.1 163.142C149.423 166.05 147.825 168.98 146.31 171.916C144.199 166.91 142.393 161.987 140.918 157.234C145.759 156.151 150.922 155.265 156.301 154.594C154.519 157.373 152.781 160.226 151.1 163.142ZM156.456 206.457C150.898 205.837 145.658 204.997 140.818 203.943C142.317 199.105 144.163 194.078 146.318 188.964C147.837 191.897 149.441 194.829 151.128 197.743C152.847 200.712 154.628 203.621 156.456 206.457ZM181.338 227.024C177.903 223.317 174.476 219.217 171.129 214.806C174.378 214.934 177.691 214.999 181.057 214.999C184.515 214.999 187.934 214.921 191.299 214.771C187.995 219.261 184.659 223.368 181.338 227.024ZM215.935 188.703C218.203 193.872 220.115 198.874 221.633 203.629C216.713 204.752 211.401 205.655 205.805 206.327C207.566 203.536 209.305 200.656 211.014 197.693C212.742 194.696 214.383 191.694 215.935 188.703ZM204.735 194.072C202.083 198.671 199.36 203.061 196.595 207.205C191.56 207.565 186.358 207.751 181.057 207.751C175.777 207.751 170.64 207.587 165.695 207.266C162.819 203.067 160.037 198.664 157.401 194.112C154.773 189.572 152.354 184.993 150.162 180.441C152.353 175.878 154.766 171.294 157.38 166.762L157.379 166.763C159.999 162.219 162.757 157.838 165.606 153.665C170.653 153.284 175.827 153.085 181.057 153.085C186.31 153.085 191.491 153.286 196.536 153.67C199.341 157.812 202.08 162.179 204.711 166.724C207.372 171.319 209.815 175.872 212.026 180.338C209.822 184.88 207.384 189.479 204.735 194.072ZM219.688 113.129C225.369 116.406 227.579 129.62 224.009 146.949C223.781 148.054 223.525 149.18 223.247 150.322C216.207 148.698 208.563 147.489 200.56 146.738C195.897 140.099 191.066 134.063 186.217 128.837C187.52 127.583 188.822 126.387 190.119 125.258C202.646 114.357 214.353 110.053 219.688 113.129Z" fill="#2D2E32"/>
<path d="M180.978 165.224C189.346 165.224 196.13 172.008 196.13 180.376C196.13 188.743 189.346 195.527 180.978 195.527C172.61 195.527 165.827 188.743 165.827 180.376C165.827 172.008 172.61 165.224 180.978 165.224Z" fill="#53C1DE"/>
</svg>
